<svg xmlns="http://www.w3.org/2000/svg" width="800" height="400" viewBox="0 0 800 400">
  <!-- Background -->
  <rect width="800" height="400" fill="#07102a"/>

  <!-- Grid horizontal -->
  <g stroke="#1e293b" stroke-width="1">
    <line x1="0" y1="80" x2="800" y2="80"/>
    <line x1="0" y1="160" x2="800" y2="160"/>
    <line x1="0" y1="240" x2="800" y2="240"/>
    <line x1="0" y1="320" x2="800" y2="320"/>
  </g>

  <!-- Area bawah grafik -->
  <path d="M 80 300 L 160 260 L 240 220 L 320 180 L 400 140 L 480 160 L 560 120 L 640 100 L 720 80 L 720 400 L 80 400 Z"
        fill="rgba(14,165,201,0.2)"/>

  <!-- Garis pertumbuhan -->
  <path d="M 80 300 L 160 260 L 240 220 L 320 180 L 400 140 L 480 160 L 560 120 L 640 100 L 720 80"
        stroke="#0ea5c9" stroke-width="3" fill="none" stroke-linecap="round" stroke-linejoin="round"/>

  <!-- Titik data -->
  <g fill="#0ea5c9">
    <circle cx="80" cy="300" r="5"/>
    <circle cx="160" cy="260" r="5"/>
    <circle cx="240" cy="220" r="5"/>
    <circle cx="320" cy="180" r="5"/>
    <circle cx="400" cy="140" r="5"/>
    <circle cx="480" cy="160" r="5"/>
    <circle cx="560" cy="120" r="5"/>
    <circle cx="640" cy="100" r="5"/>
    <circle cx="720" cy="80" r="5"/>
  </g>

  <!-- Portfolio allocation bars -->
  <g>
    <rect x="100" y="340" width="40" height="40" fill="#0ea5c9" rx="6"/>
    <rect x="160" y="320" width="40" height="60" fill="#22d3ee" rx="6"/>
    <rect x="220" y="300" width="40" height="80" fill="#67e8f9" rx="6"/>
    <rect x="280" y="280" width="40" height="100" fill="#0ea5c9" rx="6"/>
    <rect x="340" y="250" width="40" height="130" fill="#22d3ee" rx="6"/>
  </g>
</svg>